<?xml version="1.0" standalone="no"?>
<!DOCTYPE svg PUBLIC "-//W3C//DTD SVG 20010904//EN"
 "http://www.w3.org/TR/2001/REC-SVG-20010904/DTD/svg10.dtd">
<svg version="1.0" xmlns="http://www.w3.org/2000/svg"
 width="16.000000pt" height="16.000000pt" viewBox="0 0 16.000000 16.000000"
 preserveAspectRatio="xMidYMid meet">
<metadata>
Created by potrace 1.11, written by Peter Selinger 2001-2013
</metadata>
<g transform="translate(0.000000,16.000000) scale(0.001998,-0.001998)"
fill="#000000" stroke="none">
<path d="M4718 8006 c-1 -2 -55 -6 -118 -10 -185 -11 -537 -45 -630 -61 -14
-3 -47 -7 -75 -10 -27 -4 -57 -8 -65 -10 -8 -2 -35 -7 -60 -10 -25 -4 -63 -11
-85 -16 -22 -5 -49 -12 -60 -14 -80 -18 -402 -131 -515 -181 -19 -8 -44 -19
-55 -24 -192 -81 -473 -227 -655 -340 -77 -48 -258 -169 -284 -191 -6 -5 -45
-34 -86 -65 -175 -132 -433 -374 -565 -529 -33 -38 -62 -72 -65 -75 -5 -4 -59
-74 -82 -105 -4 -5 -18 -23 -31 -40 -130 -165 -294 -452 -395 -690 -70 -166
-167 -458 -186 -565 -2 -14 -11 -56 -19 -95 -9 -38 -18 -88 -21 -110 -4 -23
-8 -50 -10 -61 -2 -12 -7 -45 -11 -74 -4 -29 -8 -62 -10 -72 -13 -64 -20 -249
-20 -493 0 -244 4 -344 19 -470 2 -16 7 -57 10 -90 24 -215 78 -482 147 -727
274 -962 857 -1702 1739 -2203 119 -68 339 -176 445 -220 50 -20 104 -43 120
-50 112 -50 446 -158 665 -214 102 -26 345 -77 455 -96 22 -4 49 -9 60 -11 72
-12 289 -42 370 -49 33 -3 76 -8 95 -10 117 -14 258 -19 510 -20 239 0 299 3
370 18 313 68 422 228 329 484 -10 29 -30 71 -44 93 -23 36 -29 40 -68 41 -69
1 -263 16 -317 24 -24 3 -65 9 -160 20 -25 3 -56 8 -70 10 -14 2 -65 11 -115
19 -100 17 -118 20 -220 42 -38 9 -81 18 -94 20 -41 8 -234 62 -266 74 -16 6
-31 11 -33 10 -5 -3 -170 54 -267 92 -443 175 -799 402 -1095 698 -63 63 -142
149 -175 190 -33 41 -63 77 -66 80 -15 12 -145 211 -193 294 -106 184 -215
442 -262 621 -4 17 -8 32 -9 35 -1 3 -7 32 -15 65 -8 33 -14 62 -15 65 -2 6
-18 112 -20 125 0 6 -4 37 -9 70 -23 181 -35 293 -41 376 -15 225 -18 317 -19
509 0 186 9 426 19 525 1 17 6 63 10 103 3 41 8 81 10 90 1 9 6 42 9 72 7 58
8 68 31 195 8 44 17 95 20 112 15 94 84 353 131 493 48 143 166 411 215 490 9
14 36 59 60 100 97 166 311 420 449 534 348 287 848 506 1320 580 231 36 281
40 520 40 237 1 395 -10 570 -39 14 -3 43 -7 65 -10 69 -10 348 -74 421 -96
263 -79 450 -149 624 -231 122 -58 127 -59 190 -54 173 15 267 57 317 144 45
76 39 192 -14 314 -16 35 -34 55 -76 81 -139 89 -343 186 -522 249 -94 33
-289 91 -345 102 -14 3 -79 17 -145 30 -66 14 -138 28 -160 31 -22 3 -65 10
-95 15 -59 9 -134 19 -190 25 -19 2 -66 6 -105 10 -38 4 -95 9 -125 12 -63 5
-856 13 -862 9z"/>
</g>
</svg>
